# xmcd
#
# Track frame offsets:
#	150
#	19264
#	41020
#	65684
#	90408
#	115590
#	141907
#	157112
#	173368
#	199192
#	215052
#	232002
#	249996
#	263986
#	284497
#
# Disc length: 4161
#
# Revision: 1
# Processed by: cddbd v1.5.1PL0 Copyright (c) Steve Scherf et al.
# Submitted via: dBpowerAMP V4.0
# Normalized: r0:TDELIM( - )
#
DISCID=db103f0f
DTITLE=Various Artist - Soul Togetherness 2002
DYEAR=2002
DGENRE=R&B
TTITLE0=It Must Be Love - Phajja
TTITLE1=Don't Stop (D-Influence mix) - Byron Stingily
TTITLE2=Golden Lady - Frank McComb
TTITLE3=Friends Can Be Lovers - Dionne Warwicke
TTITLE4=Not Gonna Change (Classic Song Mix) - Swing Out Sister
TTITLE5=A Chance For Hope - The Live Band
TTITLE6=Sleep On It - Phyllis Hyman
TTITLE7=Keep On Tryin' - Fir Ya
TTITLE8=Lay It Down On Me - Gerald Mallory
TTITLE9=Love's Gonna Find You - Gail Eason
TTITLE10=It's You Girl - Universal Love
TTITLE11=Independent Woman - Jan Jones
TTITLE12=Who Do You Love - John Simone
TTITLE13=Angel - Troi
TTITLE14=Family Affair - Jazoulster feat. Maysa Leak
EXTD=
EXTT0=
EXTT1=
EXTT2=
EXTT3=
EXTT4=
EXTT5=
EXTT6=
EXTT7=
EXTT8=
EXTT9=
EXTT10=
EXTT11=
EXTT12=
EXTT13=
EXTT14=
PLAYORDER=
